<svg width="16" height="12" viewBox="0 0 16 12" fill="#F1F1EC" xmlns="http://www.w3.org/2000/svg">
<path d="M15.9994 6.00004C15.9994 6.20704 15.9154 6.39404 15.7794 6.53004C15.6434 6.66604 15.4564 6.75004 15.2494 6.75004H2.29748L6.04545 10.736C6.32945 11.038 6.31545 11.513 6.01345 11.796C5.86846 11.933 5.68346 12 5.49946 12C5.29946 12 5.10046 11.921 4.95346 11.764L0.355497 6.87404C-0.118499 6.38904 -0.118499 5.61105 0.355497 5.12605L4.95346 0.236087C5.23646 -0.0659111 5.71146 -0.079911 6.01345 0.204087C6.31545 0.487085 6.32945 0.962081 6.04545 1.26408L2.29748 5.25005H15.2494C15.6634 5.25005 15.9994 5.58605 15.9994 6.00004Z"/>
</svg>
