<svg width="50" height="50" viewBox="0 0 50 50" fill="none" xmlns="http://www.w3.org/2000/svg">
<path d="M40 0H10C4.47715 0 0 4.47715 0 10V40C0 45.5228 4.47715 50 10 50H40C45.5228 50 50 45.5228 50 40V10C50 4.47715 45.5228 0 40 0Z" fill="white"/>
<path fill-rule="evenodd" clip-rule="evenodd" d="M24.9982 5C13.9555 5 5 13.9542 5 25.0007C5 33.837 10.7301 41.3327 18.6775 43.9773C19.6782 44.1615 20.0428 43.5438 20.0428 43.0135C20.0428 42.5395 20.0257 41.281 20.0158 39.6125C14.4527 40.8207 13.279 36.931 13.279 36.931C12.3692 34.6203 11.0579 34.0052 11.0579 34.0052C9.242 32.7652 11.1954 32.7897 11.1954 32.7897C13.2028 32.9308 14.2587 34.8512 14.2587 34.8512C16.0427 37.9072 18.9403 37.0243 20.0797 36.5123C20.2613 35.2207 20.7783 34.3392 21.3492 33.8395C16.9083 33.3348 12.239 31.6183 12.239 23.9545C12.239 21.7715 13.0187 19.9852 14.298 18.5878C14.0917 18.082 13.4053 16.0477 14.4945 13.2948C14.4945 13.2948 16.1728 12.7572 19.9937 15.3453C21.5887 14.9008 23.3002 14.6798 25.0007 14.6713C26.6998 14.6798 28.4102 14.9008 30.0075 15.3453C33.826 12.7572 35.5018 13.2948 35.5018 13.2948C36.5933 16.0477 35.907 18.082 35.702 18.5878C36.9838 19.9852 37.7573 21.7715 37.7573 23.9545C37.7573 31.638 33.0807 33.3287 28.6263 33.8235C29.3433 34.441 29.983 35.6615 29.983 37.5277C29.983 40.2007 29.9583 42.3578 29.9583 43.0135C29.9583 43.5488 30.3193 44.1712 31.3335 43.976C39.2748 41.3252 45 33.8345 45 25.0007C45 13.9542 36.0445 5 24.9982 5Z" fill="#161514"/>
</svg>
