<svg width="50" height="50" viewBox="0 0 50 50" fill="none" xmlns="http://www.w3.org/2000/svg">
<path d="M40 0H10C4.47715 0 0 4.47715 0 10V40C0 45.5228 4.47715 50 10 50H40C45.5228 50 50 45.5228 50 40V10C50 4.47715 45.5228 0 40 0Z" fill="white"/>
<g clip-path="url(#clip0_721_5)">
<path d="M43.3516 25.4219C43.3516 24.1875 43.2422 23.0156 43.0547 21.875H25.3984V28.9219H35.5078C35.0547 31.2344 33.7266 33.1875 31.7578 34.5156V39.2031H37.7891C41.3203 35.9375 43.3516 31.125 43.3516 25.4219Z" fill="#4285F4"/>
<path d="M25.3984 43.75C30.4609 43.75 34.6953 42.0625 37.7891 39.2031L31.7578 34.5156C30.0703 35.6406 27.9297 36.3281 25.3984 36.3281C20.5078 36.3281 16.3672 33.0312 14.8828 28.5781H8.66406V33.4063C11.7422 39.5313 18.0703 43.75 25.3984 43.75Z" fill="#34A853"/>
<path d="M14.8828 28.5781C14.4922 27.4531 14.2891 26.25 14.2891 25C14.2891 23.75 14.5078 22.5469 14.8828 21.4219V16.5938H8.66406C7.38281 19.125 6.64844 21.9687 6.64844 25C6.64844 28.0312 7.38281 30.875 8.66406 33.4062L14.8828 28.5781Z" fill="#FBBC05"/>
<path d="M25.3984 13.6719C28.1641 13.6719 30.6328 14.625 32.5859 16.4844L37.9297 11.1406C34.6953 8.10938 30.4609 6.25 25.3984 6.25C18.0703 6.25 11.7422 10.4688 8.66406 16.5938L14.8828 21.4219C16.3672 16.9688 20.5078 13.6719 25.3984 13.6719Z" fill="#EA4335"/>
</g>
<defs>
<clipPath id="clip0_721_5">
<rect width="37.5" height="37.5" fill="white" transform="translate(6.25 6.25)"/>
</clipPath>
</defs>
</svg>
