<svg width="30" height="30" viewBox="0 0 30 30" fill="none" xmlns="http://www.w3.org/2000/svg">
<path d="M26.9162 8.85584C26.9353 9.12379 26.9353 9.39181 26.9353 9.65976C26.9353 17.8328 20.7488 27.25 9.44162 27.25C5.95811 27.25 2.72209 26.2355 0 24.4746C0.494941 24.532 0.970781 24.5512 1.48477 24.5512C4.35908 24.5512 7.00506 23.575 9.11801 21.9098C6.41496 21.8523 4.14973 20.0723 3.36926 17.6223C3.75 17.6796 4.13068 17.7179 4.53047 17.7179C5.08248 17.7179 5.63455 17.6414 6.14848 17.5074C3.33123 16.9332 1.21822 14.4449 1.21822 11.4398V11.3633C2.03672 11.8227 2.98857 12.1098 3.99738 12.148C2.34129 11.0378 1.25631 9.14294 1.25631 6.99918C1.25631 5.85076 1.56082 4.79802 2.09385 3.87927C5.12051 7.63083 9.67002 10.0808 14.7715 10.3488C14.6763 9.88942 14.6192 9.41096 14.6192 8.93243C14.6192 5.52536 17.3603 2.75 20.7677 2.75C22.538 2.75 24.1369 3.49648 25.2601 4.70234C26.6496 4.43439 27.9821 3.91756 29.1623 3.20938C28.7054 4.64496 27.7346 5.85082 26.4593 6.61639C27.6966 6.48247 28.8959 6.13786 29.9999 5.6594C29.1625 6.88435 28.1154 7.97532 26.9162 8.85584Z" fill="#F1F1EC"/>
</svg>
