<svg width="30" height="30" viewBox="0 0 30 30" fill="none" xmlns="http://www.w3.org/2000/svg">
<rect width="30" height="30" rx="7" fill="#DD9F93"/>
<path d="M13.3801 23.288C11.8921 23.288 10.6601 22.688 9.68409 21.488C8.70809 20.272 8.22009 18.688 8.22009 16.736C8.22009 14.784 8.55609 13.008 9.22809 11.408C9.90009 9.792 10.8601 8.48 12.1081 7.472C13.3561 6.464 14.6841 5.96 16.0921 5.96C17.5161 5.96 18.6601 6.28 19.5241 6.92C20.4041 7.56 20.8441 8.328 20.8441 9.224C20.8441 10.104 20.5801 10.856 20.0521 11.48C19.5401 11.48 18.9641 11.368 18.3241 11.144C17.6841 10.92 17.2041 10.648 16.8841 10.328L17.3401 7.904C16.9561 7.664 16.4521 7.544 15.8281 7.544C14.8521 7.544 13.9881 8.384 13.2361 10.064C12.4841 11.728 12.1081 13.784 12.1081 16.232C12.1081 17.848 12.3721 19.024 12.9001 19.76C13.4441 20.48 14.1001 20.84 14.8681 20.84C16.1321 20.84 17.3481 20.248 18.5161 19.064L19.5001 19.952C19.3241 20.208 19.0041 20.56 18.5401 21.008C18.0761 21.456 17.6201 21.832 17.1721 22.136C16.7241 22.424 16.1561 22.688 15.4681 22.928C14.7801 23.168 14.0841 23.288 13.3801 23.288Z" fill="#FFF9F4"/>
</svg>
